#!OML:ASF Y:\EmotionMaleHayes\Project 1\Capture day 1\Session 1\Male1.ASF
:FULLY-SPECIFIED
:DEGREES
1603
root 47.9866 16.3889 -5.52063 1.56402 176.487 -0.340884
lowerback 12.6046 3.62504 -2.02617
upperback 5.72658 5.35514 -2.39512
thorax -0.973453 3.01316 -2.06087
lowerneck -17.3433 7.84241 6.97893
upperneck 37.5291 7.78035 -3.65566
head 17.0678 2.73104 -1.61859
rclavicle 2.08724e-014 3.81667e-014
rhumerus -35.2346 -10.6207 -82.9536
rradius 25.2729
rwrist 14.2391
rhand -7.1626 -37.0999
rfingers 7.12502
rthumb 18.7144 -66.2196
lclavicle 2.08724e-014 3.81667e-014
lhumerus -39.8585 -2.86725 78.3197
lradius 40.4404
lwrist -9.32862
lhand -7.91382 -24.6859
lfingers 7.12502
lthumb 17.9918 4.50194
rfemur 6.34921 -4.69069 15.9013
rtibia 45.2708
rfoot -9.09737 0.109583
rtoes 0.294926
lfemur -16.5372 13.366 -9.81038
ltibia 48.794
lfoot -17.5943 6.74468
ltoes 7.46961
1604
root 47.9909 16.4179 -5.64363 1.62105 177.201 -1.06602
lowerback 12.6667 3.49601 -2.80839
upperback 5.71168 5.10811 -2.52415
thorax -1.07558 2.88675 -1.73531
lowerneck -17.3281 8.00391 7.11071
upperneck 37.3999 8.09875 -3.8487
head 17.0414 2.86625 -1.65703
rclavicle -1.23246e-014 9.14409e-015
rhumerus -35.9797 -9.99788 -82.8085
rradius 25.4902
rwrist 13.7881
rhand -6.0939 -38.1475
rfingers 7.12502
rthumb 19.7421 -67.165
lclavicle -1.23246e-014 9.14409e-015
lhumerus -39.3596 -3.43746 77.9575
lradius 42.3981
lwrist -8.21313
lhand -9.12416 -24.5947
lfingers 7.12502
lthumb 16.8269 4.69617
rfemur 4.70614 -4.70914 15.178
rtibia 47.5712
rfoot -9.17291 0.93139
rtoes 0.0879103
lfemur -16.5372 13.366 -9.81038
ltibia 48.794
lfoot -17.5943 6.74468
ltoes 7.46961
1605
root 47.996 16.4478 -5.76577 1.71796 177.981 -1.62451
lowerback 12.7015 3.35288 -3.33203
upperback 5.7101 4.87483 -2.66097
thorax -1.12312 2.77269 -1.55869
lowerneck -17.409 8.18248 7.31163
upperneck 37.2981 8.4279 -4.06386
head 17.0633 3.01318 -1.71181
rclavicle 0 5.96354e-015
rhumerus -36.6665 -9.53164 -82.7332
rradius 25.7026
rwrist 13.6061
rhand -5.44491 -39.087
rfingers 7.12502
rthumb 20.3659 -68.0391
lclavicle 0 5.96354e-015
lhumerus -38.4791 -4.16369 77.5646
lradius 44.0627
lwrist -6.83543
lhand -10.4399 -24.2057
lfingers 7.12502
lthumb 15.56 5.18834
rfemur 3.02462 -4.828 14.6451
rtibia 49.571
rfoot -9.24716 1.78274
rtoes 0.232887
lfemur -16.5372 13.366 -9.81038
ltibia 48.794
lfoot -17.5943 6.74468
ltoes 7.46961
1606
root 48.0022 16.4756 -5.88494 1.88471 178.862 -2.1733
lowerback 12.6705 3.15054 -3.90763
upperback 5.70488 4.55406 -2.72068
thorax -1.14527 2.61012 -1.25586
lowerneck -17.4178 8.38662 7.45662
upperneck 37.1378 8.87588 -4.41897
head 17.0539 3.18161 -1.79607
rclavicle -6.75868e-015 1.66979e-014
rhumerus -37.2859 -8.81803 -82.6901
rradius 25.9165
rwrist 13.4314
rhand -5.20743 -39.9233
rfingers 7.12502
rthumb 20.5941 -68.8508
lclavicle -6.75868e-015 1.66979e-014
lhumerus -37.7034 -5.39238 77.3421
lradius 45.9043
lwrist -4.91399
lhand -11.5832 -23.7175
lfingers 7.12502
lthumb 14.4586 5.75881
rfemur 1.26324 -4.92353 14.16
rtibia 51.4223
rfoot -9.60603 2.14998
rtoes 0.749371
lfemur -16.5372 13.366 -9.81038
ltibia 48.794
lfoot -17.5943 6.74468
ltoes 7.46961
1607
root 48.0093 16.5025 -6.00556 2.00851 179.78 -2.65112
lowerback 12.663 2.92464 -4.51425
upperback 5.70529 4.19245 -2.65632
thorax -1.17872 2.42249 -0.802387
lowerneck -17.3621 8.63061 7.48249
upperneck 36.9693 9.41221 -4.74094
head 17.0233 3.37312 -1.8284
rclavicle 4.81059e-014 -1.35174e-014
rhumerus -37.9379 -7.83348 -82.5263
rradius 26.1575
rwrist 13.6198
rhand -4.11736 -39.7982
rfingers 7.12502
rthumb 21.6413 -68.6088
lclavicle 4.81059e-014 -1.35174e-014
lhumerus -36.9892 -5.43996 77.053
lradius 47.5752
lwrist -4.10259
lhand -12.325 -23.9247
lfingers 7.12502
lthumb 13.7438 5.60134
rfemur -0.327873 -5.00354 13.7623
rtibia 52.9475
rfoot -9.9294 2.16641
rtoes 0.899996
lfemur -16.5372 13.366 -9.81038
ltibia 48.794
lfoot -17.5943 6.74468
ltoes 7.46961
1608
root 48.0138 16.5311 -6.12955 2.00961 180.694 -3.05497
lowerback 12.7385 3.80468 -4.70941
upperback 5.81455 3.61045 -2.53136
thorax -1.16773 1.40082 -0.477805
lowerneck -17.3377 8.9008 7.62098
upperneck 36.8266 9.93227 -5.0271
head 17.0231 3.57973 -1.86528
rclavicle 1.70955e-014 4.21423e-014
rhumerus -38.5449 -7.21276 -82.1788
rradius 26.2683
rwrist 14.7057
rhand -2.29132 -38.5546
rfingers 7.12502
rthumb 23.394 -67.1527
lclavicle 1.70955e-014 4.21423e-014
lhumerus -36.25 -5.94547 76.5677
lradius 49.3818
lwrist -2.97358
lhand -12.8946 -24.2289
lfingers 7.12502
lthumb 13.1948 5.33358
rfemur -1.74316 -5.27605 13.2895
rtibia 54.161
rfoot -10.0029 2.16871
rtoes 1.12803
lfemur -16.5372 13.366 -9.81038
ltibia 48.794
lfoot -17.5943 6.74468
ltoes 7.46961
1609
root 48.0142 16.5605 -6.25312 2.01335 181.64 -3.5736
lowerback 12.654 3.66645 -4.87677
upperback 6.00423 3.38343 -2.73477
thorax -0.914899 1.26674 -0.555438
lowerneck -17.4656 9.07753 7.81598
upperneck 36.6267 10.2328 -5.12506
head 17.0009 3.74185 -1.86283
rclavicle -1.21259e-014 3.73715e-014
rhumerus -38.9853 -7.03688 -82.0566
rradius 26.3786
rwrist 15.621
rhand -1.13663 -37.2238
rfingers 7.12502
rthumb 24.5012 -65.6765
lclavicle -1.21259e-014 3.73715e-014
lhumerus -35.1053 -7.07596 75.9349
lradius 51.1141
lwrist -1.62776
lhand -13.7238 -24.3499
lfingers 7.12502
lthumb 12.3954 5.26261
rfemur -3.22531 -5.68588 12.5976
rtibia 55.3225
rfoot -10.3738 1.8387
rtoes 0.638462
lfemur -16.5372 13.366 -9.81038
ltibia 48.794
lfoot -17.5943 6.74468
ltoes 7.46961
1610
root 48.0139 16.595 -6.37956 1.97964 182.586 -4.04771
lowerback 12.7091 3.49593 -5.27222
upperback 6.08112 3.09893 -2.74079
thorax -0.876468 1.11057 -0.303717
lowerneck -17.4209 9.29431 7.93348
upperneck 36.4974 10.6287 -5.29449
head 16.9839 3.91156 -1.8695
rclavicle 1.64991e-014 -1.19271e-014
rhumerus -39.5804 -6.27154 -81.9312
rradius 26.5741
rwrist 15.8754
rhand -0.442255 -36.0472
rfingers 7.12502
rthumb 25.1667 -64.4082
lclavicle 1.64991e-014 -1.19271e-014
lhumerus -34.3663 -8.08713 75.5166
lradius 52.9002
lwrist -0.338432
lhand -14.7381 -24.3849
lfingers 7.12502
lthumb 11.4173 5.28427
rfemur -4.59636 -5.94677 12.0438
rtibia 56.2595
rfoot -11.113 1.05446
rtoes -0.454135
lfemur -16.5372 13.366 -9.81038
ltibia 48.794
lfoot -17.5943 6.74468
ltoes 7.46961
1611
root 48.0192 16.6265 -6.50429 2.01409 183.643 -4.25433
lowerback 12.7829 3.27429 -5.52956
upperback 6.06535 2.78636 -2.61027
thorax -0.94018 0.955734 0.0152823
lowerneck -17.3132 9.50786 8.1419
upperneck 36.3969 11.0298 -5.59536
head 16.99 4.07322 -1.95282
rclavicle -1.59028e-014 4.09496e-014
rhumerus -40.2809 -5.18048 -81.8886
rradius 26.846
rwrist 15.6407
rhand 0.258616 -34.9304
rfingers 7.12502
rthumb 25.8381 -63.1953
lclavicle -1.59028e-014 4.09496e-014
lhumerus -33.5955 -7.81132 75.009
lradius 54.4996
lwrist -0.283029
lhand -15.2198 -24.5992
lfingers 7.12502
lthumb 10.9528 5.09509
rfemur -5.98218 -6.17478 11.8738
rtibia 56.9321
rfoot -11.8058 0.268128
rtoes 0.782273
lfemur -16.5372 13.366 -9.81038
ltibia 48.794
lfoot -17.5943 6.74468
ltoes 7.46961
1612
root 48.0211 16.6585 -6.62951 2.0518 184.717 -4.31283
lowerback 12.8182 3.03359 -5.52787
upperback 6.05671 2.48529 -2.49
thorax -0.960994 0.812534 0.180467
lowerneck -17.2015 9.70982 8.36388
upperneck 36.2712 11.4074 -5.88532
head 16.9825 4.23122 -2.03712
rclavicle -5.56597e-015 7.15625e-015
rhumerus -41.0055 -3.87541 -82.1236
rradius 27.2221
rwrist 14.8223
rhand 0.588521 -34.2605
rfingers 7.12502
rthumb 26.154 -62.479
lclavicle -5.56597e-015 7.15625e-015
lhumerus -32.789 -8.1249 74.5046
lradius 56.138
lwrist 0.24821
lhand -15.6421 -24.705
lfingers 7.12502
lthumb 10.5455 5.01043
rfemur -7.35187 -6.28468 11.812
rtibia 57.4222
rfoot -12.4636 -0.473661
rtoes 4.03381
lfemur -16.5372 13.366 -9.81038
ltibia 48.794
lfoot -17.5943 6.74468
ltoes 7.46961
1613
root 48.0236 16.6969 -6.75412 1.93848 185.763 -4.46468
lowerback 13.0012 2.83372 -5.62671
upperback 6.09419 2.19963 -2.39109
thorax -1.01481 0.668249 0.37337
lowerneck -17.0498 9.90808 8.54889
upperneck 36.1265 11.7627 -6.09437
head 16.9441 4.38911 -2.08406
rclavicle 1.71949e-014 3.22031e-014
rhumerus -41.6989 -2.73158 -82.3446
rradius 27.6182
rwrist 13.9962
rhand 0.609069 -33.872
rfingers 7.12502
rthumb 26.1736 -62.0876
lclavicle 1.71949e-014 3.22031e-014
lhumerus -32.0151 -8.19233 74.0302
lradius 57.7127
lwrist 0.106131
lhand -15.9742 -25.0827
lfingers 7.12502
lthumb 10.225 4.64884
rfemur -8.45963 -6.30128 11.6088
rtibia 57.6094
rfoot -13.252 -1.57117
rtoes 5.70263
lfemur -16.5372 13.366 -9.81038
ltibia 48.794
lfoot -17.5943 6.74468
ltoes 7.46961
